<svg id="b90746aa-ab89-4048-b48f-88833dcede4a" data-name="Layer 1" xmlns="http://www.w3.org/2000/svg" width="888.2" height="478" viewBox="0 0 888.24409 478.03289"><title>quite_town</title><path d="M 347.9 688 h -2 a 94 94 0 0 0 -188 0 h -2 a 96 96 0 0 1 192 0 Z" transform="translate(-155.9,-211)" fill="#3f3d56"/><path d="M 1043.9 688 h -2 a 94 94 0 1 0 -188 0 h -2 a 96 96 0 1 1 192 0 Z" transform="translate(-155.9,-211)" fill="#3f3d56"/><path d="M 808.9 459 h -2 c 0 -94.8 -77.2 -172 -172 -172 c -94.8 0 -172 77.2 -172 172 h -2 c 0 -95.9 78.1 -174 174 -174 C 730.8 285 808.9 363 808.9 459 Z" transform="translate(-155.9,-211)" fill="#3f3d56"/><circle cx="145.5" cy="39.5" r="39.5" fill="#ff6584"/><polygon points="153.9,311.4 221.8,230.6 355.2,230.6 436.7,310 435.1,311 435.6,311 435.6,476.2 154,476.2 154,311 153.9,311.4" fill="#3f3d56"/><rect x="350.6" y="434" width="15.4" height="53.2" transform="translate(560.7,710.2) rotate(-180)" fill="#3f3d56"/><polygon points="220.7,229.5 304.3,327.6 304.3,476.2 154,476.2 154,308.9 220.7,229.5" fill="#63ffbc"/><rect x="254.3" y="347" width="30.7" height="31.4" fill="#3f3d56"/><rect x="254.3" y="389.8" width="30.7" height="31.4" fill="#3f3d56"/><rect x="254.3" y="347" width="30.7" height="31.4" fill="#ffffff"/><rect x="254.3" y="389.8" width="30.7" height="31.4" fill="#ffffff"/><rect x="211.8" y="347" width="30.7" height="31.4" fill="#3f3d56"/><rect x="211.8" y="389.8" width="30.7" height="31.4" fill="#3f3d56"/><rect x="211.8" y="347" width="30.7" height="31.4" fill="#ffffff"/><rect x="211.8" y="389.8" width="30.7" height="31.4" fill="#ffffff"/><rect x="169.4" y="347" width="30.7" height="31.4" fill="#3f3d56"/><rect x="169.4" y="389.8" width="30.7" height="31.4" fill="#3f3d56"/><rect x="169.4" y="347" width="30.7" height="31.4" fill="#ffffff"/><rect x="169.4" y="389.8" width="30.7" height="31.4" fill="#ffffff"/><rect x="485" y="40" width="14" height="35" fill="#63ffbc"/><rect x="379" y="72" width="119" height="405" fill="#63ffbc"/><rect x="498" y="72" width="48" height="405" fill="#3f3d56"/><rect x="400.5" y="107" width="18" height="18" fill="#ffffff"/><rect x="429.5" y="107" width="18" height="18" fill="#ffffff"/><rect x="458.5" y="107" width="18" height="18" fill="#ffffff"/><rect x="401" y="148" width="18" height="18" fill="#ffffff"/><rect x="430" y="148" width="18" height="18" fill="#ffffff"/><rect x="459" y="148" width="18" height="18" fill="#ffffff"/><rect x="401.5" y="189" width="18" height="18" fill="#ffffff"/><rect x="430.5" y="189" width="18" height="18" fill="#ffffff"/><rect x="459.5" y="189" width="18" height="18" fill="#ffffff"/><rect x="402" y="230" width="18" height="18" fill="#ffffff"/><rect x="431" y="230" width="18" height="18" fill="#ffffff"/><rect x="460" y="230" width="18" height="18" fill="#ffffff"/><rect x="402.5" y="271" width="18" height="18" fill="#ffffff"/><rect x="431.5" y="271" width="18" height="18" fill="#ffffff"/><rect x="460.5" y="271" width="18" height="18" fill="#ffffff"/><rect x="403" y="312" width="18" height="18" fill="#ffffff"/><rect x="432" y="312" width="18" height="18" fill="#ffffff"/><rect x="461" y="312" width="18" height="18" fill="#ffffff"/><rect x="403.5" y="353" width="18" height="18" fill="#ffffff"/><rect x="432.5" y="353" width="18" height="18" fill="#ffffff"/><rect x="461.5" y="353" width="18" height="18" fill="#ffffff"/><rect x="404" y="394" width="18" height="18" fill="#ffffff"/><rect x="433" y="394" width="18" height="18" fill="#ffffff"/><rect x="433" y="442" width="18" height="34" fill="#ffffff"/><rect x="462" y="394" width="18" height="18" fill="#ffffff"/><rect x="498" y="40" width="8" height="34" fill="#3f3d56"/><rect x="635" y="218" width="14" height="20.7" fill="#63ffbc"/><rect x="529" y="237" width="119" height="240" fill="#63ffbc"/><rect x="648" y="237" width="48" height="240" fill="#3f3d56"/><rect x="552.5" y="271" width="18" height="18" fill="#ffffff"/><rect x="581.5" y="271" width="18" height="18" fill="#ffffff"/><rect x="610.5" y="271" width="18" height="18" fill="#ffffff"/><rect x="553" y="312" width="18" height="18" fill="#ffffff"/><rect x="582" y="312" width="18" height="18" fill="#ffffff"/><rect x="611" y="312" width="18" height="18" fill="#ffffff"/><rect x="553.5" y="353" width="18" height="18" fill="#ffffff"/><rect x="582.5" y="353" width="18" height="18" fill="#ffffff"/><rect x="611.5" y="353" width="18" height="18" fill="#ffffff"/><rect x="554" y="394" width="18" height="18" fill="#ffffff"/><rect x="583" y="394" width="18" height="18" fill="#ffffff"/><rect x="583" y="442" width="18" height="34" fill="#ffffff"/><rect x="612" y="394" width="18" height="18" fill="#ffffff"/><rect x="648" y="218" width="8" height="20.2" fill="#3f3d56"/><rect x="0.2" y="475.8" width="888" height="2.2" fill="#3f3d56"/><circle cx="732.7" cy="404" r="26" fill="#63ffbc"/><path d="M 907.9 597.6 A 26 26 0 0 1 864.5 625.2 a 26 26 0 1 0 43.4 -27.6 Z" transform="translate(-155.9,-211)" opacity="0.2"/><polygon points="732.7,404 732.8,404 734.1,477.9 731.4,477.9 732.7,404" fill="#3f3d56"/><rect x="890.3" y="653.4" width="1.3" height="4.9" transform="translate(900.3,-649) rotate(62.2)" fill="#3f3d56"/><circle cx="809.2" cy="365.6" r="39.6" fill="#63ffbc"/><path d="M 994.6 550.1 a 39.6 39.6 0 0 1 -66 41.9 a 39.6 39.6 0 1 0 66 -41.9 Z" transform="translate(-155.9,-211)" opacity="0.2"/><polygon points="809.3,365.6 809.4,365.6 811.4,477.9 807.3,477.9 809.3,365.6" fill="#3f3d56"/><rect x="967.7" y="634.9" width="2" height="7.4" transform="translate(926.6,-727) rotate(62.2)" fill="#3f3d56"/><circle cx="26.7" cy="403" r="26" fill="#63ffbc"/><path d="M 201.9 596.6 A 26 26 0 0 1 158.5 624.2 a 26 26 0 1 0 43.4 -27.6 Z" transform="translate(-155.9,-211)" opacity="0.2"/><polygon points="26.7,403 26.8,403 28.1,476.9 25.4,476.9 26.7,403" fill="#3f3d56"/><rect x="184.3" y="652.4" width="1.3" height="4.9" transform="translate(522.3,-24.8) rotate(62.2)" fill="#3f3d56"/><path d="M 762.3 248.3 l 9.2 -7.4 c -7.2 -0.8 -10.1 3.1 -11.3 6.2 c -5.6 -2.3 -11.7 0.7 -11.7 0.7 l 18.4 6.7 A 13.9 13.9 0 0 0 762.3 248.3 Z" transform="translate(-155.9,-211)" fill="#3f3d56"/><path d="M 300.3 285.3 l 9.2 -7.4 c -7.2 -0.8 -10.1 3.1 -11.3 6.2 c -5.6 -2.3 -11.7 0.7 -11.7 0.7 l 18.4 6.7 A 13.9 13.9 0 0 0 300.3 285.3 Z" transform="translate(-155.9,-211)" fill="#3f3d56"/><path d="M 902.3 323.3 l 9.2 -7.4 c -7.2 -0.8 -10.1 3.1 -11.3 6.2 c -5.6 -2.3 -11.7 0.7 -11.7 0.7 l 18.4 6.7 A 13.9 13.9 0 0 0 902.3 323.3 Z" transform="translate(-155.9,-211)" fill="#3f3d56"/><path d="M 376.3 265.3 l 9.2 -7.4 c -7.2 -0.8 -10.1 3.1 -11.3 6.2 c -5.6 -2.3 -11.7 0.7 -11.7 0.7 l 18.4 6.7 A 13.9 13.9 0 0 0 376.3 265.3 Z" transform="translate(-155.9,-211)" fill="#3f3d56"/><path d="M 393.3 345.3 l 9.2 -7.4 c -7.2 -0.8 -10.1 3.1 -11.3 6.2 c -5.6 -2.3 -11.7 0.7 -11.7 0.7 l 18.4 6.7 A 13.9 13.9 0 0 0 393.3 345.3 Z" transform="translate(-155.9,-211)" fill="#3f3d56"/><path d="M 751.3 387.3 l 9.2 -7.4 c -7.2 -0.8 -10.1 3.1 -11.3 6.2 c -5.6 -2.3 -11.7 0.7 -11.7 0.7 l 18.4 6.7 A 13.9 13.9 0 0 0 751.3 387.3 Z" transform="translate(-155.9,-211)" fill="#3f3d56"/><polygon points="106,456 44,456 44,458 53.7,458 53.7,477 55.7,477 55.7,458 93.3,458 93.3,477 95.3,477 95.3,458 106,458 106,456" fill="#3f3d56"/><path d="M 324.9 675 a 13.9 13.9 0 0 0 -7 1.9 A 15 15 0 0 0 292.9 688 h 45.9 A 14 14 0 0 0 324.9 675 Z" transform="translate(-155.9,-211)" fill="#3f3d56"/><path d="M 561.9 675 a 13.9 13.9 0 0 0 -7 1.9 A 15 15 0 0 0 529.9 688 h 45.9 A 14 14 0 0 0 561.9 675 Z" transform="translate(-155.9,-211)" fill="#3f3d56"/><path d="M 716.9 675 a 13.9 13.9 0 0 0 -7 1.9 A 15 15 0 0 0 684.9 688 h 45.9 A 14 14 0 0 0 716.9 675 Z" transform="translate(-155.9,-211)" fill="#3f3d56"/><path d="M 920.9 675 a 13.9 13.9 0 0 0 -7 1.9 A 15 15 0 0 0 888.9 688 h 45.9 A 14 14 0 0 0 920.9 675 Z" transform="translate(-155.9,-211)" fill="#3f3d56"/><path d="M 1018.9 675 a 13.9 13.9 0 0 0 -7 1.9 A 15 15 0 0 0 986.9 688 h 45.9 A 14 14 0 0 0 1018.9 675 Z" transform="translate(-155.9,-211)" fill="#3f3d56"/><polygon points="129,407 113,407 113,423 120.4,423 120.4,476.9 122.4,476.9 122.4,423 129,423 129,407" fill="#3f3d56"/><rect x="44.1" y="450" width="62" height="2" fill="#3f3d56"/><rect x="44.1" y="445" width="62" height="2" fill="#3f3d56"/><rect x="44.1" y="440" width="62" height="2" fill="#3f3d56"/></svg>